<svg width="68" height="14" viewBox="0 0 68 14" fill="none" xmlns="http://www.w3.org/2000/svg">
<path d="M0.9 0.944999H1.8V12.855H3.915C4.285 12.855 4.63 12.85 4.95 12.84C5.28 12.84 5.595 12.83 5.895 12.81C6.205 12.8 6.505 12.78 6.795 12.75C7.095 12.73 7.405 12.7 7.725 12.66V13.44C7.405 13.48 7.09 13.51 6.78 13.53C6.48 13.56 6.175 13.58 5.865 13.59C5.555 13.61 5.23 13.62 4.89 13.62C4.56 13.63 4.21 13.635 3.84 13.635H0.9V0.944999ZM12.9173 3.96C13.6073 3.96 14.2173 4.065 14.7473 4.275C15.2773 4.475 15.7223 4.755 16.0823 5.115C16.4523 5.465 16.7323 5.88 16.9223 6.36C17.1123 6.84 17.2073 7.355 17.2073 7.905V9.885C17.2073 10.435 17.1123 10.95 16.9223 11.43C16.7323 11.91 16.4523 12.325 16.0823 12.675C15.7223 13.035 15.2773 13.315 14.7473 13.515C14.2173 13.725 13.6073 13.83 12.9173 13.83C12.2273 13.83 11.6173 13.725 11.0873 13.515C10.5573 13.315 10.1073 13.035 9.73734 12.675C9.37734 12.325 9.10234 11.91 8.91234 11.43C8.72234 10.95 8.62734 10.435 8.62734 9.885V7.905C8.62734 7.355 8.72234 6.84 8.91234 6.36C9.10234 5.88 9.37734 5.465 9.73734 5.115C10.1073 4.755 10.5573 4.475 11.0873 4.275C11.6173 4.065 12.2273 3.96 12.9173 3.96ZM9.49734 9.735C9.49734 10.215 9.57234 10.66 9.72234 11.07C9.87234 11.48 10.0873 11.83 10.3673 12.12C10.6573 12.41 11.0123 12.635 11.4323 12.795C11.8623 12.965 12.3573 13.05 12.9173 13.05C13.4673 13.05 13.9573 12.965 14.3873 12.795C14.8173 12.635 15.1723 12.41 15.4523 12.12C15.7423 11.83 15.9623 11.48 16.1123 11.07C16.2623 10.66 16.3373 10.215 16.3373 9.735V8.055C16.3373 7.575 16.2623 7.13 16.1123 6.72C15.9623 6.31 15.7423 5.96 15.4523 5.67C15.1723 5.38 14.8173 5.155 14.3873 4.995C13.9573 4.825 13.4673 4.74 12.9173 4.74C12.3573 4.74 11.8623 4.825 11.4323 4.995C11.0123 5.155 10.6573 5.38 10.3673 5.67C10.0873 5.96 9.87234 6.31 9.72234 6.72C9.57234 7.13 9.49734 7.575 9.49734 8.055V9.735ZM12.9173 10.41C12.8873 9.82 12.7573 9.415 12.5273 9.195C12.2973 8.975 11.9373 8.855 11.4473 8.835C11.9373 8.815 12.2973 8.695 12.5273 8.475C12.7573 8.255 12.8873 7.85 12.9173 7.26C12.9473 7.85 13.0723 8.255 13.2923 8.475C13.5223 8.695 13.8873 8.815 14.3873 8.835C13.8873 8.855 13.5223 8.975 13.2923 9.195C13.0723 9.415 12.9473 9.82 12.9173 10.41ZM21.5625 13.635C20.8525 13.635 20.3325 13.405 20.0025 12.945C19.6725 12.485 19.5075 11.885 19.5075 11.145V4.935H18.1125V4.155H19.5375V0.944999H20.4375V4.155H22.3875V4.935H20.4375V11.205C20.4375 11.705 20.5275 12.105 20.7075 12.405C20.8875 12.705 21.2425 12.855 21.7725 12.855H22.5375V13.635H21.5625ZM26.5869 13.635C25.8769 13.635 25.3569 13.405 25.0269 12.945C24.6969 12.485 24.5319 11.885 24.5319 11.145V4.935H23.1369V4.155H24.5619V0.944999H25.4619V4.155H27.4119V4.935H25.4619V11.205C25.4619 11.705 25.5519 12.105 25.7319 12.405C25.9119 12.705 26.2669 12.855 26.7969 12.855H27.5619V13.635H26.5869ZM32.7513 3.96C33.4413 3.96 34.0513 4.065 34.5813 4.275C35.1113 4.475 35.5563 4.755 35.9163 5.115C36.2863 5.465 36.5663 5.88 36.7563 6.36C36.9463 6.84 37.0413 7.355 37.0413 7.905V9.885C37.0413 10.435 36.9463 10.95 36.7563 11.43C36.5663 11.91 36.2863 12.325 35.9163 12.675C35.5563 13.035 35.1113 13.315 34.5813 13.515C34.0513 13.725 33.4413 13.83 32.7513 13.83C32.0613 13.83 31.4513 13.725 30.9213 13.515C30.3913 13.315 29.9413 13.035 29.5713 12.675C29.2113 12.325 28.9363 11.91 28.7463 11.43C28.5563 10.95 28.4613 10.435 28.4613 9.885V7.905C28.4613 7.355 28.5563 6.84 28.7463 6.36C28.9363 5.88 29.2113 5.465 29.5713 5.115C29.9413 4.755 30.3913 4.475 30.9213 4.275C31.4513 4.065 32.0613 3.96 32.7513 3.96ZM29.3313 9.735C29.3313 10.215 29.4063 10.66 29.5563 11.07C29.7063 11.48 29.9213 11.83 30.2013 12.12C30.4913 12.41 30.8463 12.635 31.2663 12.795C31.6963 12.965 32.1913 13.05 32.7513 13.05C33.3013 13.05 33.7913 12.965 34.2213 12.795C34.6513 12.635 35.0063 12.41 35.2863 12.12C35.5763 11.83 35.7963 11.48 35.9463 11.07C36.0963 10.66 36.1713 10.215 36.1713 9.735V8.055C36.1713 7.575 36.0963 7.13 35.9463 6.72C35.7963 6.31 35.5763 5.96 35.2863 5.67C35.0063 5.38 34.6513 5.155 34.2213 4.995C33.7913 4.825 33.3013 4.74 32.7513 4.74C32.1913 4.74 31.6963 4.825 31.2663 4.995C30.8463 5.155 30.4913 5.38 30.2013 5.67C29.9213 5.96 29.7063 6.31 29.5563 6.72C29.4063 7.13 29.3313 7.575 29.3313 8.055V9.735ZM32.7513 10.41C32.7213 9.82 32.5913 9.415 32.3613 9.195C32.1313 8.975 31.7713 8.855 31.2813 8.835C31.7713 8.815 32.1313 8.695 32.3613 8.475C32.5913 8.255 32.7213 7.85 32.7513 7.26C32.7813 7.85 32.9063 8.255 33.1263 8.475C33.3563 8.695 33.7213 8.815 34.2213 8.835C33.7213 8.855 33.3563 8.975 33.1263 9.195C32.9063 9.415 32.7813 9.82 32.7513 10.41ZM42.1992 3.72C42.1992 3.29 42.2892 2.895 42.4692 2.535C42.6592 2.175 42.9242 1.865 43.2642 1.605C43.6042 1.345 44.0142 1.145 44.4942 1.005C44.9742 0.864999 45.5092 0.794999 46.0992 0.794999C46.6892 0.794999 47.2242 0.864999 47.7042 1.005C48.1842 1.145 48.5942 1.345 48.9342 1.605C49.2742 1.865 49.5342 2.175 49.7142 2.535C49.9042 2.895 49.9992 3.29 49.9992 3.72V3.96C49.9992 4.4 49.9042 4.8 49.7142 5.16C49.5342 5.51 49.2742 5.815 48.9342 6.075C48.5942 6.335 48.1842 6.535 47.7042 6.675C47.2242 6.815 46.6892 6.885 46.0992 6.885C45.5092 6.885 44.9742 6.815 44.4942 6.675C44.0142 6.535 43.6042 6.335 43.2642 6.075C42.9242 5.815 42.6592 5.51 42.4692 5.16C42.2892 4.8 42.1992 4.4 42.1992 3.96V3.72ZM52.9242 0.944999H53.8242V7.05H52.9242V0.944999ZM46.0992 6.105C46.5392 6.105 46.9442 6.055 47.3142 5.955C47.6842 5.855 47.9992 5.715 48.2592 5.535C48.5292 5.345 48.7342 5.12 48.8742 4.86C49.0242 4.59 49.0992 4.29 49.0992 3.96V3.72C49.0992 3.39 49.0242 3.095 48.8742 2.835C48.7342 2.565 48.5292 2.34 48.2592 2.16C47.9992 1.97 47.6842 1.825 47.3142 1.725C46.9442 1.625 46.5392 1.575 46.0992 1.575C45.6592 1.575 45.2542 1.625 44.8842 1.725C44.5142 1.825 44.1942 1.97 43.9242 2.16C43.6642 2.34 43.4592 2.565 43.3092 2.835C43.1692 3.095 43.0992 3.39 43.0992 3.72V3.96C43.0992 4.29 43.1692 4.59 43.3092 4.86C43.4592 5.12 43.6642 5.345 43.9242 5.535C44.1942 5.715 44.5142 5.855 44.8842 5.955C45.2542 6.055 45.6592 6.105 46.0992 6.105ZM46.0992 5.385C46.0692 4.795 45.9392 4.39 45.7092 4.17C45.4792 3.95 45.1192 3.83 44.6292 3.81C45.1192 3.79 45.4792 3.67 45.7092 3.45C45.9392 3.23 46.0692 2.825 46.0992 2.235C46.1292 2.825 46.2542 3.23 46.4742 3.45C46.7042 3.67 47.0692 3.79 47.5692 3.81C47.0692 3.83 46.7042 3.95 46.4742 4.17C46.2542 4.39 46.1292 4.795 46.0992 5.385ZM42.4242 10.26H52.9242V8.58H42.4242V7.8H53.8242V11.04H43.3242V12.855H53.9742V13.635H42.4242V10.26ZM66.8695 0.944999H67.7695V13.635H66.8695V0.944999ZM62.0395 13.635C62.3195 11.555 62.5495 9.52 62.7295 7.53C62.9095 5.54 63.0195 3.605 63.0595 1.725H56.1445V0.944999H64.0195C63.9895 2.075 63.9445 3.18 63.8845 4.26C63.8245 5.33 63.7495 6.39 63.6595 7.44C63.5695 8.48 63.4645 9.515 63.3445 10.545C63.2345 11.575 63.1095 12.605 62.9695 13.635H62.0395Z" fill="black"/>
</svg>